<svg width="135" height="135" viewBox="0 0 135 135" fill="none" xmlns="http://www.w3.org/2000/svg">
<path d="M39.6375 73.1671L57.3984 55.4688L18.5504 16.8202C15.5379 13.8183 10.3289 14.6313 8.44615 18.5087C3.99025 27.8269 5.62199 39.2714 13.3414 47.0261L39.6375 73.1671ZM72.9627 71.0408L64.1136 62.3365L55.5 70.8365L64.1136 79.8586L102.899 118.507C105.346 120.946 109.3 120.946 111.748 118.507C114.195 116.068 114.195 112.128 111.748 109.689L72.9627 71.0408Z" fill="#B5887F"/>
<path d="M82.229 61.5755C91.8311 66.0157 105.324 62.8888 115.303 52.9453C120.478 47.7885 125.991 40.2563 129.334 35.4313C131.208 32.7275 130.816 29.1015 128.49 26.7754L127.817 26.1026C127.427 25.7121 126.794 25.7121 126.403 26.1026L105.069 47.4371C104.288 48.2182 103.021 48.2182 102.24 47.4371L100.18 45.3765C99.3985 44.5954 99.3985 43.3291 100.18 42.548L120.1 22.6277C121.271 21.4562 121.271 19.5567 120.1 18.3851L117.271 15.5568C116.1 14.3852 114.2 14.3852 113.029 15.5568L93.1085 35.477C92.3275 36.2581 91.0611 36.2581 90.2801 35.477L88.2193 33.4162C87.4382 32.6352 87.4382 31.3688 88.2193 30.5878L109.554 9.25314C109.944 8.86268 109.944 8.22915 109.554 7.83862C109.124 7.40867 108.712 6.99664 108.321 6.6056C105.929 4.21305 102.172 3.87486 99.4286 5.85446C94.215 9.61604 86.0547 15.6962 81.9779 19.7375C71.9992 29.6811 68.8613 43.1268 73.3172 52.6951L16.4573 109.355C14.0097 111.794 14.0097 115.734 16.4573 118.173C18.9049 120.612 22.8587 120.612 25.3063 118.173L82.229 61.5755Z" fill="#B5887F"/>
</svg>
