<svg width="500" height="500" viewBox="0 0 500 500" fill="none" xmlns="http://www.w3.org/2000/svg">
<path d="M500 250C500 268.541 497.982 286.61 494.153 304H217.965L188.517 355H476.947C437.269 440.616 350.57 500 250 500C204.187 500 161.253 487.677 124.33 466.165C119.523 463.365 114.819 460.409 110.223 457.304C43.7222 412.377 0 336.294 0 250C0 111.929 111.929 0 250 0C295.283 0 337.754 12.0395 374.387 33.0922C433.875 67.2798 477.968 125.236 493.704 194H281.479L252.609 244H499.929C499.976 245.994 500 247.994 500 250Z" fill="url(#paint0_linear_18_647)"/>
<defs>
<linearGradient id="paint0_linear_18_647" x1="500" y1="3.17693e-05" x2="-33" y2="1162" gradientUnits="userSpaceOnUse">
<stop stop-color="#3B82F6"/>
<stop offset="1" stop-color="#FF00E5"/>
</linearGradient>
</defs>
</svg>
